# xmcd
#
# Track frame offsets:
#	150
#	13719
#	26838
#	45075
#	62012
#	82332
#	102179
#	120254
#	138891
#	154131
#
# Disc length: 2235 seconds
#
# Revision: 1
# Processed by: cddbd v1.5.2PL0 Copyright (c) Steve Scherf et al.
# Submitted via: audiograbber 1.83.01
#
DISCID=7508b90a
DTITLE=Milk'n Blues - Milk'n Blues
DYEAR=2015
DGENRE=Blues
TTITLE0=Is there anybody there
TTITLE1=Vicious smile
TTITLE2=Hey baby
TTITLE3=Love will make you go blind
TTITLE4=Tell me
TTITLE5=Time to let it go
TTITLE6=Knockout
TTITLE7=I just want you to know
TTITLE8=Do it
TTITLE9=Just a dream
EXTD=
EXTT0=
EXTT1=
EXTT2=
EXTT3=
EXTT4=
EXTT5=
EXTT6=
EXTT7=
EXTT8=
EXTT9=
PLAYORDER=
